{"title":"Rajjo 2013 Hindi Movie  Scam Rip-GOPI SAHI=PDR","uid":9199923,"size":337349406,"categoryP":"video","categoryS":"movies","magnet":"?xt=urn:btih:ad2e23aacb1021ac22d0351305c9405aeae21994&amp;dn=Rajjo+2013+Hindi+Movie++Scam+Rip-GOPI+SAHI%3DPDR&amp;tr=udp%3A%2F%2Ftracker.openbittorrent.com%3A80&amp;tr=udp%3A%2F%2Fopen.demonii.com%3A1337&amp;tr=udp%3A%2F%2Ftracker.coppersurfer.tk%3A6969&amp;tr=udp%3A%2F%2Fexodus.desync.com%3A6969","seeders":1,"leechers":0,"uploader":"jatt13","files":1,"time":1384570180,"description":"[img]http://imageshack.us/a/img577/6841/j1g9.jpg[/img]\n[url]http://www.imdb.com/title/tt2438764/[/url]\nVideo\nID                             : 0\nFormat                         : AVC\nFormat/Info                    : Advanced Video Codec\nFormat profile                 : &lt;a class=&quot;__cf_email__&quot; href=&quot;/cdn-cgi/l/email-protection&quot; data-cfemail=&quot;bef6d7d9d6fef28c908f&quot;&gt;[email&amp;#160;protected]&lt;/a&gt;&lt;script cf-hash='f9e31' type=&quot;text/javascript&quot;&gt;\n/* &lt;![CDATA[ */!function(){try{var t=&quot;currentScript&quot;in document?document.currentScript:function(){for(var t=document.getElementsByTagName(&quot;script&quot;),e=t.length;e--;)if(t[e].getAttribute(&quot;cf-hash&quot;))return t[e]}();if(t&amp;&amp;t.previousSibling){var e,r,n,i,c=t.previousSibling,a=c.getAttribute(&quot;data-cfemail&quot;);if(a){for(e=&quot;&quot;,r=parseInt(a.substr(0,2),16),n=2;a.length-n;n+=2)i=parseInt(a.substr(n,2),16)^r,e+=String.fromCharCode(i);e=document.createTextNode(e),c.parentNode.replaceChild(e,c)}}}catch(u){}}();/* ]]&gt; */&lt;/script&gt;\nFormat settings, CABAC         : Yes\nFormat settings, ReFrames      : 4 frames\nCodec ID                       : H264\nDuration                       : 1h 48mn\nBit rate                       : 278 Kbps\nWidth                          : 640 pixels\nHeight                         : 272 pixels\nDisplay aspect ratio           : 2.35:1\nFrame rate mode                : Variable\nFrame rate                     : 25.000 fps\nColor space                    : YUV\nChroma subsampling             : 4:2:0\nBit depth                      : 8 bits\nScan type                      : Progressive\nBits/(Pixel*Frame)             : 0.064\nStream size                    : 215 MiB (67%)\nWriting library                : x264 core 135\nEncoding settings              : cabac=1 // deblock=1:0:0 / analyse=0x3:0x113 / \n\nAudio\nID                             : 1\nFormat                         : MPEG Audio\nFormat version                 : Version 1\nFormat profile                 : Layer 3\nCodec ID                       : 55\nCodec ID/Hint                  : MP3\nDuration                       : 1h 48mn\nBit rate mode                  : Constant\nBit rate                       : 128 Kbps\nChannel count                  : 2 channels\nSampling rate                  : 44.1 KHz\nCompression mode               : Lossy\nStream size                    : 99.1 MiB (31%)\nAlignment                      : Split accross interleaves\nInterleave, duration           : 40 ms (1.00 video frame)\nWriting library                : LAMELAME_MAJOR_VERSI\n[img]http://imageshack.us/a/img577/2164/wt3l.jpg[/img]","torrent":{"xt":"urn:btih:ad2e23aacb1021ac22d0351305c9405aeae21994","amp;dn":"Rajjo+2013+Hindi+Movie++Scam+Rip-GOPI+SAHI%3DPDR","amp;tr":["udp%3A%2F%2Ftracker.openbittorrent.com%3A80","udp%3A%2F%2Fopen.demonii.com%3A1337","udp%3A%2F%2Ftracker.coppersurfer.tk%3A6969","udp%3A%2F%2Fexodus.desync.com%3A6969"],"infoHash":"ad2e23aacb1021ac22d0351305c9405aeae21994","infoHashBuffer":{"type":"Buffer","data":[173,46,35,170,203,16,33,172,34,208,53,19,5,201,64,90,234,226,25,148]},"announce":[],"urlList":[]}}